<?xml version="1.0" encoding="UTF-8" standalone="no"?>
<svg
   width="778"
   height="893"
   version="1.1"
   id="svg71"
   sodipodi:docname="favicon.svg"
   inkscape:version="1.3.2 (091e20e, 2023-11-25)"
   xmlns:inkscape="http://www.inkscape.org/namespaces/inkscape"
   xmlns:sodipodi="http://sodipodi.sourceforge.net/DTD/sodipodi-0.dtd"
   xmlns="http://www.w3.org/2000/svg"
   xmlns:svg="http://www.w3.org/2000/svg">
  <sodipodi:namedview
     id="namedview71"
     pagecolor="#ffffff"
     bordercolor="#666666"
     borderopacity="1.0"
     inkscape:showpageshadow="2"
     inkscape:pageopacity="0.0"
     inkscape:pagecheckerboard="0"
     inkscape:deskcolor="#d1d1d1"
     inkscape:zoom="0.65530802"
     inkscape:cx="48.831998"
     inkscape:cy="421.93898"
     inkscape:window-width="1968"
     inkscape:window-height="916"
     inkscape:window-x="308"
     inkscape:window-y="25"
     inkscape:window-maximized="0"
     inkscape:current-layer="g3" />
  <defs
     id="defs3">
    <linearGradient
       id="gradient_0"
       gradientUnits="userSpaceOnUse"
       x1="561.53119"
       y1="940.52173"
       x2="427.07773"
       y2="78.157356"
       gradientTransform="translate(-123.30162,-90.301067)">
      <stop
         offset="0"
         stop-color="#01110D"
         id="stop2" />
      <stop
         offset="1"
         stop-color="#343C3D"
         id="stop3" />
    </linearGradient>
    <clipPath
       clipPathUnits="userSpaceOnUse"
       id="clipPath81">
      <path
         id="path81"
         style="display:inline;opacity:0.5;fill:#1a1a1a"
         d="m 541.53711,611.01953 c -26.83416,-0.0578 -52.80463,-0.0253 -78.87305,0.002 a 36.846996,33.052841 0 0 1 -35.47851,24.25586 36.846996,33.052841 0 0 1 -35.45508,-24.14843 c -56.09923,0.14722 -111.6457,0.34871 -173.29102,0.42382 l -45.52148,-0.0762 c -7.43298,-0.023 -15.5808,-0.68798 -22.92578,0.16602 -4.35,0.506 -8.0133,2.27767 -11.11328,5.38867 -1.913,1.92 -3.21547,4.09975 -4.23047,6.59375 -1.591,3.81 -1.31266,8.0913 0.27734,11.86328 1.68,3.987 5.56741,8.0171 9.69141,9.4961 4.40998,1.58198 54.97816,0.53081 64.99414,0.50781 l 140.92578,-0.21094 352.36328,-0.10156 118.79297,0.0293 35.67969,0.008 c 6.66898,0.01 13.58572,0.42206 20.2207,-0.21094 2.317,-0.222 4.67311,-0.63514 6.74609,-1.74414 3.962,-2.12 6.30922,-5.90694 7.44922,-10.16992 1.097,-4.102 0.76033,-8.03799 -1.38867,-11.70899 -0.647,-0.896 -1.29967,-1.78976 -2.01367,-2.63476 -2.81,-3.326 -6.7663,-5.94533 -11.11328,-6.61133 -6.732,-1.032 -14.09555,-0.46088 -20.89453,-0.42188 -11.20465,0.0753 -22.41059,0.094 -33.61524,0.0547 l -129.01562,-0.22265 -39.625,0.043 c -8.3627,-0.0679 -15.81031,-0.0658 -23.99805,-0.12109 a 36.944828,32.508804 0 0 1 -35.11328,22.5625 36.944828,32.508804 0 0 1 -35.26758,-22.91992 c -5.90513,-0.0178 -12.36124,-0.0792 -18.20703,-0.0918 z"
         inkscape:label="crossbar clip" />
    </clipPath>
    <clipPath
       clipPathUnits="userSpaceOnUse"
       id="clipPath9">
      <ellipse
         style="display:inline;opacity:0.5;fill:#1a1a1a;fill-opacity:1;fill-rule:evenodd;stroke:none;stroke-width:72.1421;stroke-linecap:round;stroke-linejoin:round"
         id="ellipse10"
         cx="737.99597"
         cy="86.299484"
         rx="160.77069"
         ry="93.180519" />
    </clipPath>
    <clipPath
       clipPathUnits="userSpaceOnUse"
       id="clipPath16">
      <ellipse
         style="display:inline;opacity:0.5;fill:#1a1a1a;fill-opacity:1;fill-rule:evenodd;stroke:none;stroke-width:162.277;stroke-linecap:round;stroke-linejoin:round"
         id="ellipse17"
         cx="678.17871"
         cy="-221.61255"
         rx="480.90982"
         ry="157.61771"
         transform="matrix(0.954856,0.29706906,-0.1937435,0.98105222,0,0)" />
    </clipPath>
  </defs>
  <g
     id="g3"
     inkscape:label="HamsterList"
     transform="translate(6.8619989e-7,34.111004)">
    <path
       fill="#36993C"
       d="m 97.793711,799.26132 c 222.964369,-0.2845 375.046249,-0.0814 578.321999,1.82 7.062,2.427 13.89,6.209 18.178,12.517 3.57,5.253 5.036,11.72 3.635,17.955 -1.78,7.926 -7.7,14.728 -14.43,19.004 -7.342,4.664 -15.335,6.792 -23.959,7.27 -13.903,0.771 -28.182,0.16 -42.127,0.158 l -70.737,0.29 -261.062,0.017 -107.473,-0.427 -32.776,0.063 c -11.595,0.042 -23.756,0.736 -35.12,-1.885 -11.975999,-2.764 -27.776999,-9.681 -34.332999,-20.736 -2.658,-4.481 -3.535,-9.659 -2.085,-14.705 3.419,-11.894 13.62,-15.275 23.135,-20.846 z"
       id="path2"
       style="display:inline;opacity:0.12;fill:#000000"
       inkscape:label="Shadow"
       sodipodi:nodetypes="cccccccccccccccc" />
    <g
       id="g72"
       style="display:inline"
       inkscape:label="basket"
       transform="translate(-123.58029,-87.23568)">
      <g
         id="g53"
         inkscape:label="right handle"
         style="fill:#4cae4f;fill-opacity:1">
        <path
           id="path17"
           style="display:inline;fill:#4cae4f;fill-opacity:1;stroke:#2f3839;stroke-width:20;stroke-dasharray:none;stroke-opacity:1;paint-order:stroke fill markers"
           d="m 280.03125,442.6875 c -11.48199,0.012 -23.3062,-0.56563 -32.11719,8.19336 -7.85999,7.81299 -14.13935,23.24885 -19.40234,33.33984 -8.88066,16.88865 -17.61452,33.85388 -26.20117,50.89453 -11.94099,23.18898 -24.5642,46.08387 -36.11719,69.46485 l 14.49219,-0.0996 8.9707,0.0488 c 7.03999,-11.33799 12.80538,-23.95384 18.98437,-35.79883 11.94333,-23.21064 24.09195,-46.31138 36.44727,-69.30469 4.061,-7.57099 12.36076,-25.33741 17.96875,-30.4414 8.54533,-0.0253 17.09011,-0.0974 25.63477,-0.21876 l 5.2832,-13.74609 c 1.758,-4.06699 3.58367,-8.1116 5.01367,-12.30859 z" />
        <path
           fill="#a1062c"
           d="m 180.686,604.48 c 5.019,-7.961 8.947,-16.904 13.413,-25.207 q 16.486,-30.377 32.157,-61.182 c 6.645,-13.123 24.606,-50.979 33.326,-59.328 5.948,-5.695 26.076,-3.757 34.392,-3.743 l -5.282,13.745 q -12.817,0.182 -25.635,0.22 c -5.608,5.104 -13.908,22.869 -17.969,30.44 q -18.533,34.49 -36.448,69.306 c -6.179,11.845 -11.943,24.46 -18.983,35.798 z"
           id="path13"
           style="fill:#39823b;fill-opacity:1" />
      </g>
      <g
         id="g52"
         inkscape:label="left handle"
         style="stroke-width:20;stroke-dasharray:none;paint-order:stroke fill markers">
        <path
           id="path18"
           style="display:inline;fill:#4cae4f;fill-opacity:1;stroke:#2f3839;stroke-width:20;stroke-dasharray:none;stroke-opacity:1;paint-order:stroke fill markers"
           d="m 747.16797,443.11719 c -6.92449,0.0466 -13.98368,0.40404 -18.45117,0.43554 l 3.99414,14.97657 2.68164,10.99414 c 7.06999,-0.249 21.61933,-2.39936 26.98633,2.30664 8.78399,7.70199 44.2193,77.37501 51.90429,91.875 7.027,13.25998 14.8324,26.41168 21.15039,40.01367 l 7.27149,-0.13672 15.41992,0.002 c -4.5,-11.34198 -11.9909,-21.79301 -17.83789,-32.5 l -45.69727,-84.12304 c -4.79199,-8.77599 -15.6933,-31.42963 -21.52929,-37.26563 -2.387,-2.387 -5.00796,-4.16125 -8.25196,-5.15625 -3.92649,-1.205 -10.71613,-1.4685 -17.64062,-1.42187 z" />
        <path
           fill="#a1062c"
           d="m 732.711,458.529 c 9.412,-0.687 23.892,-2.332 31.461,4.284 2.895,2.53 5.241,5.92 7.219,9.188 10.149,16.771 18.654,34.984 27.736,52.4 9.203,17.648 19.086,34.869 28.5,52.395 4.732,8.808 9.107,18.79 15.078,26.787 l -7.271,0.136 c -6.318,-13.602 -14.124,-26.753 -21.151,-40.013 -7.685,-14.5 -43.12,-84.174 -51.904,-91.876 -5.367,-4.706 -19.917,-2.555 -26.987,-2.306 z"
           id="path11"
           inkscape:label="path11"
           style="fill:#39823b;fill-opacity:1;stroke-width:20;stroke-dasharray:none;paint-order:stroke fill markers" />
      </g>
      <path
         fill="#105953"
         d="m 844.497,654.739 5.373,0.005 c -1.335,7.449 -3.557,14.85 -5.234,22.24 q -5.694,26.261 -11.75,52.442 -10.269,47.38 -21.287,94.592 c -3.171,13.633 -7.007,38.442 -13.54,49.7 q -0.692,1.215 -1.444,2.393 -0.752,1.179 -1.562,2.319 -0.81,1.139 -1.676,2.237 -0.866,1.097 -1.786,2.15 -0.92,1.053 -1.892,2.058 -0.971,1.006 -1.991,1.961 -1.021,0.956 -2.088,1.859 -1.067,0.904 -2.178,1.752 -1.111,0.849 -2.263,1.641 -1.152,0.792 -2.342,1.526 -1.191,0.734 -2.416,1.407 -1.225,0.673 -2.483,1.283 -1.258,0.611 -2.544,1.158 -1.287,0.548 -2.599,1.03 -1.312,0.482 -2.647,0.898 -1.335,0.415 -2.689,0.764 c -8.808,2.231 -18.646,1.412 -27.691,1.394 l -31.129,-0.048 -110.22,-0.026 -219.767,-0.039 -70.938,0.08 c -12.34,0.021 -24.875,0.542 -37.188,-0.055 q -1.432,-0.061 -2.858,-0.212 -1.426,-0.151 -2.839,-0.392 -1.413,-0.241 -2.809,-0.571 -1.395,-0.329 -2.766,-0.747 -1.372,-0.417 -2.714,-0.921 -1.343,-0.503 -2.651,-1.09 -1.307,-0.588 -2.576,-1.256 -1.268,-0.669 -2.491,-1.417 c -13.745,-8.279 -20.771,-20.236 -24.622,-35.462 -2.29,-11.81 -5.532,-23.594 -8.316,-35.312 L 197.54,762.872 c -8.399,-35.894 -15.639,-72.292 -25.61,-107.786 54.207,-0.638 108.491,-0.022 162.707,-0.039 l 337.541,-0.017 c 57.402,-0.005 114.935,0.788 172.319,-0.291 z"
         id="path59"
         style="display:inline;fill:#4cae4f;fill-opacity:1;stroke:#2f3839;stroke-width:20;stroke-dasharray:none;stroke-opacity:1;paint-order:stroke fill markers"
         inkscape:label="path59" />
      <g
         id="g71"
         style="opacity:0.25;fill:#000000"
         inkscape:label="basket panes">
        <path
           fill="#3FAAD3"
           d="m 273.469,795.026 49.165,-0.038 c 1.873,24.123 5.101,48.287 6.425,72.429 -8.125,-1.665 -16.143,-4.762 -23.132,-9.245 -23.475,-15.055 -26.903,-38.098 -32.458,-63.146 z"
           id="path60"
           style="fill:#000000" />
        <path
           fill="#3FAAD3"
           d="m 698.961,794.999 56.086,-0.023 c -3.826,23.389 -3.821,41.123 -22.053,58.703 -12.926,10.807 -24.816,14.559 -41.494,15.045 2.728,-24.543 4.575,-49.203 7.461,-73.725 z"
           id="path61"
           style="fill:#000000" />
        <path
           fill="#3FAAD3"
           d="m 436.516,794.98 c 21.097,-0.566 42.359,-0.112 63.466,0 l -0.13,73.378 -59.612,-0.095 c -0.8,-24.431 -2.413,-48.873 -3.724,-73.283 z"
           id="path62"
           style="fill:#000000" />
        <path
           fill="#3FAAD3"
           d="m 611.047,794.971 c 21.106,-0.504 42.377,-0.262 63.492,-0.009 -1.246,7.933 -1.637,16.176 -2.416,24.176 l -4.788,46.858 c -0.075,0.642 -0.316,1.324 -0.483,1.951 -2.703,1.177 -52.964,0.416 -59.896,0.399 1.081,-24.457 2.751,-48.926 4.091,-73.375 z"
           id="path63"
           style="fill:#000000" />
        <path
           fill="#3FAAD3"
           d="m 523.185,794.995 63.985,0.006 c -1.247,23.695 -2.924,47.41 -3.7,71.124 -0.008,0.645 -0.139,1.27 -0.24,1.907 -3.053,1.433 -52.632,0.339 -60.18,0.223 z"
           id="path64"
           style="fill:#000000" />
        <path
           fill="#3FAAD3"
           d="m 346.958,795.003 c 21.828,-0.22 43.682,-0.064 65.511,-0.004 0.135,8.568 0.978,17.207 1.511,25.765 l 2.974,47.512 q -31.834,0.193 -63.669,-0.065 c -2.356,-24.375 -4.275,-48.805 -6.327,-73.208 z"
           id="path65"
           style="fill:#000000" />
        <path
           fill="#3FAAD3"
           d="m 245.709,681.02 66.723,0.076 c 0.543,11.841 2.122,23.725 3.23,35.53 q 2.513,27.452 4.697,54.932 l -52.971,0.171 C 259.356,741.81 252.52,711.24 245.709,681.02 Z"
           id="path66"
           style="fill:#000000" />
        <path
           fill="#3FAAD3"
           d="m 711.075,680.985 c 21.11,-0.393 42.313,-0.123 63.428,0.01 -5.31,28.102 -9.366,56.434 -14.16,84.626 l -1.012,5.993 -58.014,0.006 c 2.792,-30.238 6.766,-60.406 9.758,-90.635 z"
           id="path67"
           style="fill:#000000" />
        <path
           fill="#3FAAD3"
           d="m 430.465,680.934 c 23.12,-0.733 46.496,-0.238 69.635,-0.004 q -0.516,45.353 -0.117,90.708 l -64.458,-0.053 c -1.029,-9.439 -1.281,-19.07 -1.791,-28.559 q -1.436,-31.056 -3.269,-62.092 z"
           id="path68"
           style="fill:#000000" />
        <path
           fill="#3FAAD3"
           d="m 634.608,680.75 q 26.236,-0.199 52.472,0.003 c -4.19,30.068 -6.632,60.664 -9.8,90.869 l -12.03,-0.038 -52.786,-0.005 c 0.003,-11.004 1.248,-22.291 1.921,-33.293 q 1.809,-28.685 3.041,-57.4 c 5.715,-0.172 11.462,-0.098 17.182,-0.136 z"
           id="path69"
           style="fill:#000000" />
        <path
           fill="#3FAAD3"
           d="m 337.354,680.947 c 22.81,-0.29 45.66,-0.019 68.474,0.003 1.053,30.295 3.556,60.678 5.226,90.966 l -66.053,-0.274 c -2.013,-12.92 -2.508,-26.417 -3.588,-39.475 -1.409,-17.038 -3.269,-34.149 -4.059,-51.22 z"
           id="path70"
           style="fill:#000000" />
        <path
           fill="#3FAAD3"
           d="m 523.404,680.963 q 34.823,-0.277 69.646,-0.031 c -0.14,12.124 -1.138,24.342 -1.759,36.461 q -1.152,25.251 -2.668,50.483 c -0.017,1.269 0.03,2.384 -0.49,3.573 -6.967,0.75 -14.48,0.202 -21.501,0.195 l -43.379,-0.034 c -0.346,-11.011 -0.058,-22.128 -0.057,-33.152 q -0.099,-28.749 0.208,-57.495 z"
           id="path71"
           style="fill:#000000" />
      </g>
    </g>
    <g
       id="g173"
       inkscape:label="right ear"
       style="display:inline;stroke-width:20;stroke-dasharray:none;paint-order:stroke fill markers"
       transform="translate(-123.58029,-87.23568)">
      <g
         id="g8"
         inkscape:label="shade"
         style="display:inline;stroke:#2f3839;stroke-width:20;stroke-dasharray:none;stroke-opacity:1;paint-order:stroke fill markers">
        <ellipse
           style="display:inline;opacity:1;fill:#995715;fill-opacity:1;fill-rule:evenodd;stroke:#2f3839;stroke-width:20;stroke-linecap:round;stroke-linejoin:round;stroke-dasharray:none;stroke-opacity:1;paint-order:stroke fill markers"
           id="path6"
           cx="670.41138"
           cy="164.43243"
           rx="66.038437"
           ry="67.196754"
           inkscape:label="outer" />
        <ellipse
           style="display:inline;opacity:1;fill:#cb341a;fill-opacity:1;fill-rule:evenodd;stroke:#2f3839;stroke-width:20;stroke-linecap:round;stroke-linejoin:round;stroke-dasharray:none;stroke-opacity:1;paint-order:stroke fill markers"
           id="ellipse6"
           cx="670.41138"
           cy="164.43243"
           rx="41.373489"
           ry="42.099182"
           inkscape:label="inner" />
      </g>
      <g
         id="g9"
         inkscape:label="light"
         style="display:inline;stroke:#2f3839;stroke-width:20;stroke-dasharray:none;stroke-opacity:1;paint-order:stroke fill markers"
         clip-path="url(#clipPath9)">
        <ellipse
           style="display:inline;opacity:1;fill:#d9883e;fill-opacity:1;fill-rule:evenodd;stroke:#2f3839;stroke-width:20;stroke-linecap:round;stroke-linejoin:round;stroke-dasharray:none;stroke-opacity:1;paint-order:stroke fill markers"
           id="ellipse7"
           cx="670.41138"
           cy="164.43243"
           rx="66.038437"
           ry="67.196754"
           inkscape:label="outer" />
        <ellipse
           style="display:inline;opacity:1;fill:#e95228;fill-opacity:1;fill-rule:evenodd;stroke:#2f3839;stroke-width:20;stroke-linecap:round;stroke-linejoin:round;stroke-dasharray:none;stroke-opacity:1;paint-order:stroke fill markers"
           id="ellipse8"
           cx="670.41138"
           cy="164.43243"
           rx="41.373489"
           ry="42.099182"
           inkscape:label="inner" />
      </g>
    </g>
    <g
       id="g15"
       inkscape:label="left ear"
       style="display:inline;stroke-width:20;stroke-dasharray:none;paint-order:stroke fill markers"
       transform="matrix(-1,0,0,1,899.33771,-86.759127)">
      <g
         id="g12"
         inkscape:label="shade"
         style="display:inline;stroke:#2f3839;stroke-width:20;stroke-dasharray:none;stroke-opacity:1;paint-order:stroke fill markers">
        <ellipse
           style="display:inline;opacity:1;fill:#995715;fill-opacity:1;fill-rule:evenodd;stroke:#2f3839;stroke-width:20;stroke-linecap:round;stroke-linejoin:round;stroke-dasharray:none;stroke-opacity:1;paint-order:stroke fill markers"
           id="ellipse11"
           cx="670.41138"
           cy="164.43243"
           rx="66.038437"
           ry="67.196754"
           inkscape:label="outer" />
        <ellipse
           style="display:inline;opacity:1;fill:#cb341a;fill-opacity:1;fill-rule:evenodd;stroke:#2f3839;stroke-width:20;stroke-linecap:round;stroke-linejoin:round;stroke-dasharray:none;stroke-opacity:1;paint-order:stroke fill markers"
           id="ellipse12"
           cx="670.41138"
           cy="164.43243"
           rx="41.373489"
           ry="42.099182"
           inkscape:label="inner" />
      </g>
      <g
         id="g14"
         inkscape:label="light"
         style="display:inline;stroke:#2f3839;stroke-width:20;stroke-dasharray:none;stroke-opacity:1;paint-order:stroke fill markers"
         clip-path="url(#clipPath16)">
        <ellipse
           style="display:inline;opacity:1;fill:#d9883e;fill-opacity:1;fill-rule:evenodd;stroke:#2f3839;stroke-width:20;stroke-linecap:round;stroke-linejoin:round;stroke-dasharray:none;stroke-opacity:1;paint-order:stroke fill markers"
           id="ellipse13"
           cx="670.41138"
           cy="164.43243"
           rx="66.038437"
           ry="67.196754"
           inkscape:label="outer" />
        <ellipse
           style="display:inline;opacity:1;fill:#e95228;fill-opacity:1;fill-rule:evenodd;stroke:#2f3839;stroke-width:20;stroke-linecap:round;stroke-linejoin:round;stroke-dasharray:none;stroke-opacity:1;paint-order:stroke fill markers"
           id="ellipse14"
           cx="670.41138"
           cy="164.43243"
           rx="41.373489"
           ry="42.099182"
           inkscape:label="inner" />
      </g>
    </g>
    <g
       id="g2"
       inkscape:label="hamster bg"
       transform="translate(-123.58029,-87.23568)">
      <path
         d="m 509.36523,138.76367 c -18.92866,0.12044 -38.12873,3.27979 -57.66992,9.81641 -10.63997,3.55897 -21.29001,8.07183 -31.08398,13.54883 -11.19596,5.79996 -21.35449,13.01336 -31.18946,20.86132 -36.14187,28.83592 -60.93827,66.33895 -74.86523,110.34375 -4.79696,15.15896 -7.57822,30.78208 -9.82422,46.5 l -0.71289,7.4375 c -0.772,6.704 -1.44845,13.61729 -1.56445,20.36329 l 1.41797,34.97851 c 0.72224,5.09915 2.07501,15.40574 4.76757,22.19141 -19.32983,53.95697 -38.01587,120.36809 -39.00585,179.54297 10.78896,1.30798 26.38983,0.1934 37.75781,0.1914 l 72.66406,0.0859 v 12.57812 c 0,2.39097 1.92544,4.31641 4.31641,4.31641 H 658.7832 c 2.39097,0 4.31446,-1.92544 4.31446,-4.31641 v -13.9414 c 31.54885,-0.62311 63.26249,0.0212 94.79296,0.17187 -2.18198,-10.97298 -4.83437,-21.86819 -7.10937,-32.82617 -6.98098,-33.62892 -13.96136,-66.81126 -23.27734,-99.9082 -3.565,-12.66498 -5.30543,-24.71071 -7.2793,-37.77735 -0.72821,-4.82063 -0.90739,-10.74545 -0.73828,-16.11132 -0.0786,-1.30473 -0.33489,-2.61413 0.0703,-3.7793 l 1.06836,-9.0293 0.63477,-8.22851 0.78906,-22.39844 c 8.3e-4,-0.0447 10e-4,-0.09 0.002,-0.13477 l -0.46481,-7.20703 c -0.0221,-3.8704 -0.28975,-7.75618 -0.64063,-11.63672 l -1.2832,-11.01562 -0.82813,-6.20313 c -0.98719,-5.57581 -2.10386,-11.15493 -3.34375,-16.70507 -0.70154,-3.1169 -1.55985,-6.18807 -2.36132,-9.27735 -0.80282,-3.10776 -1.51407,-6.24597 -2.43555,-9.31054 C 692.80654,242.40301 657.38453,191.7199 602.05477,161.91402 571.70611,146.8022 540.91309,138.56291 509.36531,138.76363 Z"
         style="display:inline;opacity:1;fill-opacity:0;fill-rule:evenodd;stroke:#2f3839;stroke-width:20;stroke-linecap:round;stroke-linejoin:round;paint-order:stroke fill markers"
         id="path24"
         sodipodi:nodetypes="sccccccccccccsssscccssccccccccccccccss" />
      <g
         id="g181"
         inkscape:label="body"
         style="display:inline;stroke-width:20;stroke-dasharray:none;paint-order:stroke fill markers">
        <rect
           style="opacity:1;fill:#f7e9d3;fill-opacity:1;fill-rule:evenodd;stroke:none;stroke-width:30.0115;stroke-linecap:round;stroke-linejoin:round;stroke-dasharray:none;stroke-opacity:1;paint-order:stroke fill markers"
           id="rect27"
           width="283.04193"
           height="131.88072"
           x="380.05637"
           y="489.63831"
           rx="4.3158231" />
        <path
           fill="#c07034"
           d="m 308.64092,424.80539 c 7.27586,11.91218 68.44608,61.27461 73.42508,60.55961 0.205,-0.03 0.407,-0.082 0.611,-0.123 3.704,8.797 10.693,17.399 16.022,25.407 l 27.579,42.221 c 4.02,6.103 8.634,11.966 12.379,18.222 -10.451,-3.38 -20.141,-3.494 -30.102,1.613 -8.228,4.218 -14.823,11.105 -17.519,20.05 -0.264,0.88933 -0.49667,1.787 -0.698,2.693 -0.40867,3.06933 -0.867,6.13133 -1.375,9.186 l -81.571,-0.095 c -11.368,0.002 -26.969,1.116 -37.758,-0.192 0.99,-59.175 19.67705,-125.58452 39.00692,-179.54161 z"
           id="path147"
           style="display:inline;stroke-width:20;stroke-dasharray:none;paint-order:stroke fill markers"
           sodipodi:nodetypes="ccccccccccccc" />
        <path
           fill="#c07034"
           d="m 640.273,490.324 c 5.864,-3.679 12.07,-6.729 17.892,-10.514 19.343,-12.579 35.025,-28.727 48.48,-47.34 4.477,-6.194 8.193,-12.903 12.639,-19.067 l 0.273,-0.372 c -0.485,6.065 -0.23063,13.94567 0.66745,19.89083 1.97387,13.06667 3.71455,25.11217 7.27955,37.77717 9.316,33.097 16.297,66.28 23.278,99.909 2.275,10.958 4.927,21.852 7.109,32.825 -34.739,-0.166 -69.702,-0.947 -104.42,0.047 -4.896,0.43 -9.739,0.508 -14.648,0.534 -2.35,-0.36 -4.823,0.748 -6.825,-0.756 l -0.042,-1.735 c -10e-4,-0.324 0.006,-0.649 -0.003,-0.974 -0.235,-8.49 -4.814,-17.025 -11.063,-22.612 -9.185,-8.211 -19.984,-9.488 -31.8,-8.82 13.685,-18.749 25.773,-38.892 38.292,-58.444 3.62,-5.653 10.57,-14.483 12.891,-20.349 z"
           id="path145"
           inkscape:label="path30"
           style="display:inline;stroke-width:20;stroke-dasharray:none;paint-order:stroke fill markers"
           sodipodi:nodetypes="cccccscccccccscccc" />
        <path
           fill="#6a3d15"
           d="m 708.719,502.963 q -1.37,5.33 -2.995,10.587 -1.626,5.258 -3.502,10.431 -1.876,5.173 -4,10.251 -2.123,5.076 -4.488,10.045 -2.365,4.969 -4.966,9.819 -2.602,4.849 -5.434,9.568 -2.831,4.718 -5.887,9.295 -3.056,4.577 -6.328,9.001 c -5.54,7.386 -12.387,13.99 -17.648,21.52 -4.896,0.43 -9.739,0.508 -14.648,0.534 -2.35,-0.36 -4.823,0.748 -6.825,-0.756 l -0.042,-1.735 c 6.846,-3.717 12.228,-9.412 17.712,-14.855 24.968,-24.782 42.039,-53.146 59.051,-83.705 z"
           id="path146"
           style="display:inline;stroke-width:20;stroke-dasharray:none;paint-order:stroke fill markers" />
        <path
           fill="#6a3d15"
           d="m 382.133,604.068 c -8.032,-3.865 -15.253,-8.796 -21.548,-15.124 -15.085,-15.166 -24.249,-36.994 -28.835,-57.598 -1.031,-4.632 -2.164,-9.551 -2.14,-14.3 2.55667,8.72333 5.77933,17.19333 9.668,25.41 9.918,20.449 28.701,45.249 51.06,52.992 -0.40867,3.06933 -0.867,6.13133 -1.375,9.186 z"
           id="path148"
           style="display:inline;stroke-width:20;stroke-dasharray:none;paint-order:stroke fill markers"
           sodipodi:nodetypes="ccsccccc" />
        <rect
           style="opacity:1;fill:#6a3d15;fill-opacity:1;fill-rule:evenodd;stroke:none;stroke-width:20;stroke-linecap:round;stroke-linejoin:round;stroke-dasharray:none;stroke-opacity:1;paint-order:stroke fill markers"
           id="rect25"
           width="10"
           height="148.88724"
           x="57.469093"
           y="600.31982"
           rx="3.3436456"
           transform="rotate(-32.613253)" />
        <rect
           style="opacity:1;fill:#6a3d15;fill-opacity:1;fill-rule:evenodd;stroke:none;stroke-width:20;stroke-linecap:round;stroke-linejoin:round;stroke-dasharray:none;stroke-opacity:1;paint-order:stroke fill markers"
           id="rect26"
           width="10"
           height="148.88724"
           x="-806.495"
           y="43.970985"
           rx="3.3436456"
           transform="matrix(-0.84232775,-0.53896564,-0.53896564,0.84232775,0,0)" />
      </g>
      <g
         id="g182"
         inkscape:label="face bg"
         style="display:inline;stroke:none;stroke-width:20;stroke-dasharray:none;paint-order:stroke fill markers">
        <path
           id="path19"
           style="display:inline;fill:#d9883e;fill-opacity:1;stroke:none;stroke-width:20;stroke-dasharray:none;stroke-opacity:1;paint-order:stroke fill markers"
           d="m 509.36523,138.76367 c -18.9287,0.12044 -38.12869,3.27979 -57.66992,9.81641 -10.63999,3.55899 -21.28999,8.07183 -31.08398,13.54883 v 0 c -11.19598,5.79998 -21.35447,13.01334 -31.18945,20.86132 -36.14194,28.83596 -60.93826,66.33885 -74.86524,110.34375 -4.79698,15.15898 -7.57822,30.78204 -9.82422,46.5 l -0.71289,7.4375 c -0.772,6.704 -1.44845,13.61729 -1.56445,20.36329 l 1.41797,34.97851 c 0.72224,5.09915 2.07529,15.40644 4.76787,22.19211 0.92083,2.32062 2.70495,3.75042 3.50947,5.16727 19.54437,17.51779 47.71474,48.22409 67.06467,59.68522 l 48.03494,28.4515 c 8.55916,5.06966 28.25618,11.25726 43.36914,13.90624 49.6839,8.706 118.6792,-4.47912 149.73286,-28.85862 13.27793,-10.4242 29.20639,-17.75174 37.81206,-23.34645 19.34296,-12.57898 35.02549,-28.72689 48.48047,-47.33985 4.477,-6.19398 8.19269,-12.90436 12.63867,-19.06836 l 0.27344,-0.37109 1.07031,-9.0293 0.63282,-8.22851 c 0.573,-7.461 0.65296,-15.04821 0.79296,-22.53321 l -0.46484,-7.20703 c -0.043,-7.54798 -1.00719,-15.15708 -1.74219,-22.66406 l -1.01172,-6.19141 c -2.09998,-11.86096 -4.67162,-23.756 -8.14062,-35.29296 C 692.8064,242.40289 657.38457,191.72 602.05469,161.91406 v 0 C 571.70597,146.8022 540.91307,138.56295 509.36523,138.76367 Z"
           sodipodi:nodetypes="scccccccccscsscscccccccccccccs" />
        <path
           fill="#eba55e"
           d="m 420.612,162.128 c 9.794,-5.477 20.443,-9.989 31.083,-13.548 52.11,-17.431 101.801,-10.844 150.359,13.335 -25.254,34.205 -50.229,76.762 -53.838,120.099 -0.854,10.257 -0.146,20.643 1.393,30.804 0.955,6.31 2.252,12.611 3.657,18.836 -27.238,-8.022 -54.149,-9.332 -81.511,-0.762 1.867,-8.913 3.345,-18.108 4.296,-27.171 5.084,-48.448 -25.917,-104.963 -55.439,-141.593 z"
           id="path149"
           style="display:inline;stroke:none;stroke-width:20;stroke-dasharray:none;paint-order:stroke fill markers"
           inkscape:label="path149" />
      </g>
    </g>
    <g
       id="g178"
       inkscape:label="right inner whiskers"
       style="stroke-width:20;stroke-dasharray:none;paint-order:stroke fill markers"
       transform="translate(-123.58029,-87.23568)">
      <path
         fill="#f6f6ef"
         d="m 650.771,367.017 c 9.565,0.883 28.515,2.902 36.925,6.161 1.881,0.729 2.966,1.392 3.777,3.262 -0.467,1.685 -0.894,2.014 -2.083,3.236 -3.598,-0.211 -37.476,-6.317 -39.019,-7.147 -1.263,-0.679 -1.288,-0.945 -1.667,-2.226 0.395,-1.476 1.065,-2.201 2.067,-3.286 z"
         id="path151"
         style="stroke-width:20;stroke-dasharray:none;paint-order:stroke fill markers" />
      <path
         fill="#f6f6ef"
         d="m 688.312,351.698 c 1.207,-0.213 2.984,-0.386 4.18,-0.119 1.296,0.289 2.171,1.523 2.975,2.497 0.157,0.881 0.442,1.256 -0.117,2.081 -0.917,1.355 -3.313,1.914 -4.799,2.239 -4.778,1.045 -10.032,1.157 -14.914,1.603 q -10.05,0.864 -20.02,2.393 c -1.925,0.243 -5.103,0.928 -6.589,-0.686 -0.891,-0.968 -0.913,-1.471 -0.748,-2.648 2.917,-3.594 33.252,-6.504 40.032,-7.36 z"
         id="path152"
         style="stroke-width:20;stroke-dasharray:none;paint-order:stroke fill markers" />
      <path
         fill="#f6f6ef"
         d="m 698.484,328.558 c 0.938,-0.095 0.559,-0.133 1.497,0.089 1.016,0.241 2.026,1.271 2.558,2.184 0.593,1.017 0.534,1.153 0.263,2.228 -6.753,4.801 -42.446,15.982 -52.477,19.432 -1.274,0.051 -1.797,-0.044 -2.894,-0.699 -0.823,-1.132 -1.115,-1.632 -1.134,-3.044 2.566,-4.285 44.94,-17.948 52.187,-20.19 z"
         id="path153"
         style="stroke-width:20;stroke-dasharray:none;paint-order:stroke fill markers" />
    </g>
    <g
       id="g177"
       inkscape:label="right eye"
       style="stroke-width:20;stroke-dasharray:none;paint-order:stroke fill markers"
       transform="translate(-123.58029,-87.23568)">
      <path
         fill="#070d00"
         d="m 603.99,239.185 c 10.222,-1.113 21.213,2.415 29.341,8.567 q 0.888,0.684 1.741,1.409 0.853,0.726 1.67,1.493 0.817,0.766 1.595,1.572 0.779,0.805 1.517,1.648 0.739,0.842 1.435,1.719 0.697,0.878 1.35,1.788 0.653,0.91 1.261,1.851 0.608,0.941 1.17,1.91 0.561,0.97 1.075,1.965 0.513,0.996 0.978,2.015 0.465,1.019 0.879,2.06 0.414,1.041 0.778,2.101 0.363,1.059 0.674,2.135 0.311,1.076 0.57,2.166 0.258,1.09 0.464,2.192 0.205,1.101 0.356,2.211 c 1.485,11.621 -2.092,23.937 -9.304,33.133 -7.589,9.679 -18.35,14.665 -30.347,16.197 -10.151,1.299 -21.596,-2.139 -29.716,-8.235 -9.652,-7.244 -15.604,-18.069 -17.189,-29.965 q -0.153,-1.096 -0.251,-2.198 -0.098,-1.102 -0.141,-2.208 -0.043,-1.106 -0.032,-2.212 0.012,-1.107 0.078,-2.211 0.066,-1.105 0.188,-2.205 0.12,-1.1 0.296,-2.192 0.175,-1.093 0.405,-2.176 0.229,-1.082 0.512,-2.152 0.282,-1.07 0.617,-2.124 0.336,-1.055 0.723,-2.091 0.387,-1.037 0.825,-2.053 0.438,-1.016 0.926,-2.01 0.488,-0.993 1.025,-1.961 0.536,-0.967 1.12,-1.907 0.584,-0.94 1.213,-1.85 0.63,-0.91 1.304,-1.788 c 7.574,-9.749 18.79,-15.156 30.894,-16.594 z"
         id="path154"
         style="stroke-width:20;stroke-dasharray:none;paint-order:stroke fill markers" />
      <path
         fill="#f6f6ef"
         d="m 616.634,292.014 c 0.933,-0.033 1.81,-0.009 2.725,0.181 1.838,0.38 3.503,1.417 4.441,3.078 0.812,1.438 0.873,3.162 0.341,4.709 -0.837,2.434 -2.567,3.374 -4.726,4.484 -0.792,-0.013 -1.588,-0.038 -2.374,-0.134 -1.65,-0.202 -3.512,-1.104 -4.43,-2.553 -0.903,-1.424 -1.097,-2.909 -0.668,-4.52 0.718,-2.696 2.427,-3.832 4.691,-5.245 z"
         id="path155"
         style="stroke-width:20;stroke-dasharray:none;paint-order:stroke fill markers" />
      <path
         fill="#f6f6ef"
         d="m 600.52,254.188 c 4.458,0.051 8.497,1.092 12.15,3.761 q 0.759,0.55 1.459,1.172 0.701,0.622 1.337,1.311 0.636,0.688 1.201,1.435 0.565,0.748 1.054,1.547 0.488,0.8 0.896,1.644 0.407,0.844 0.73,1.723 0.322,0.88 0.556,1.788 0.234,0.907 0.378,1.833 0.07,0.475 0.115,0.953 0.046,0.479 0.067,0.959 0.021,0.48 0.018,0.96 -0.003,0.48 -0.03,0.96 -0.028,0.479 -0.079,0.957 -0.052,0.478 -0.128,0.952 -0.076,0.474 -0.176,0.944 -0.099,0.47 -0.223,0.934 -0.124,0.465 -0.27,0.922 -0.147,0.457 -0.317,0.907 -0.17,0.449 -0.363,0.889 -0.192,0.44 -0.407,0.87 -0.214,0.43 -0.45,0.848 -0.236,0.419 -0.493,0.825 -0.257,0.406 -0.534,0.798 -0.277,0.392 -0.574,0.77 c -3.752,4.837 -8.726,6.701 -14.574,7.459 -3.979,-0.004 -7.875,-0.882 -11.244,-3.06 -4.411,-2.853 -7.308,-7.658 -8.192,-12.797 q -0.081,-0.471 -0.138,-0.945 -0.057,-0.475 -0.089,-0.952 -0.032,-0.477 -0.04,-0.954 -0.008,-0.478 0.008,-0.956 0.017,-0.477 0.058,-0.954 0.041,-0.476 0.106,-0.949 0.066,-0.473 0.155,-0.943 0.09,-0.469 0.203,-0.933 0.113,-0.465 0.251,-0.922 0.137,-0.458 0.297,-0.908 0.16,-0.451 0.344,-0.892 0.183,-0.441 0.389,-0.873 0.205,-0.431 0.433,-0.851 0.227,-0.421 0.476,-0.829 0.248,-0.408 0.518,-0.803 0.269,-0.395 0.558,-0.775 c 3.675,-4.909 8.646,-7.078 14.564,-7.825 z"
         id="path156"
         style="stroke-width:20;stroke-dasharray:none;paint-order:stroke fill markers" />
    </g>
    <g
       id="g176"
       inkscape:label="left eye"
       style="stroke-width:20;stroke-dasharray:none;paint-order:stroke fill markers"
       transform="translate(-123.58029,-87.23568)">
      <path
         fill="#070d00"
         d="m 411.347,240.175 c 10.159,-0.663 19.736,1.389 28.357,6.943 10.01,6.448 16.257,16.572 18.64,28.154 2.431,11.81 -0.429,24.331 -7.169,34.277 -7.316,10.794 -17.959,16.557 -30.565,18.912 -11.663,0.695 -21.761,-1.598 -31.215,-8.77 q -0.868,-0.658 -1.703,-1.359 -0.834,-0.701 -1.633,-1.442 -0.798,-0.742 -1.559,-1.522 -0.76,-0.781 -1.481,-1.598 -0.72,-0.818 -1.399,-1.67 -0.679,-0.853 -1.314,-1.738 -0.636,-0.885 -1.226,-1.801 -0.591,-0.916 -1.135,-1.86 -0.544,-0.945 -1.04,-1.915 -0.496,-0.97 -0.943,-1.964 -0.447,-0.994 -0.844,-2.009 -0.397,-1.014 -0.742,-2.048 -0.346,-1.033 -0.64,-2.083 -0.293,-1.049 -0.534,-2.112 -0.241,-1.063 -0.429,-2.136 -0.187,-1.074 -0.321,-2.155 c -1.627,-12.159 1.358,-23.792 8.87,-33.512 7.635,-9.88 17.767,-14.972 30.025,-16.592 z"
         id="path161"
         style="stroke-width:20;stroke-dasharray:none;paint-order:stroke fill markers" />
      <path
         fill="#f6f6ef"
         d="m 402.053,291.426 c 0.955,0.027 1.841,0.098 2.757,0.377 1.724,0.526 3.435,1.775 4.156,3.479 0.635,1.501 0.757,3.006 0.177,4.535 -0.882,2.323 -2.46,3.343 -4.657,4.28 -0.779,-0.032 -1.569,-0.043 -2.341,-0.163 -1.625,-0.253 -3.242,-1.367 -4.149,-2.733 -0.93,-1.401 -1.084,-3.096 -0.674,-4.705 0.671,-2.635 2.529,-3.735 4.731,-5.07 z"
         id="path162"
         style="stroke-width:20;stroke-dasharray:none;paint-order:stroke fill markers" />
      <path
         fill="#f6f6ef"
         d="m 422.976,254.152 c 4.414,-0.263 9.04,0.639 12.849,2.924 q 0.428,0.258 0.842,0.538 0.414,0.279 0.814,0.578 0.4,0.3 0.785,0.619 0.384,0.319 0.753,0.656 0.368,0.338 0.719,0.693 0.351,0.355 0.685,0.728 0.333,0.372 0.647,0.76 0.314,0.389 0.609,0.792 0.295,0.403 0.569,0.821 0.275,0.417 0.528,0.848 0.253,0.431 0.485,0.873 0.232,0.443 0.441,0.897 0.21,0.453 0.397,0.916 0.186,0.464 0.35,0.936 0.164,0.472 0.304,0.951 0.14,0.48 0.256,0.966 0.114,0.484 0.203,0.973 0.089,0.49 0.154,0.983 0.065,0.493 0.105,0.989 0.04,0.495 0.055,0.992 0.015,0.497 0.005,0.995 -0.01,0.497 -0.045,0.993 -0.035,0.496 -0.094,0.99 -0.06,0.494 -0.144,0.984 -0.085,0.49 -0.193,0.975 -0.109,0.485 -0.242,0.965 -0.133,0.479 -0.29,0.951 -0.157,0.472 -0.337,0.935 -0.18,0.464 -0.383,0.918 -0.203,0.454 -0.429,0.897 -0.226,0.443 -0.473,0.874 -0.248,0.432 -0.517,0.85 c -3.257,5.064 -8.115,7.625 -13.874,8.801 -4.698,0.412 -9.339,-0.413 -13.388,-2.906 q -0.425,-0.263 -0.837,-0.547 -0.412,-0.284 -0.809,-0.588 -0.397,-0.304 -0.778,-0.628 -0.382,-0.323 -0.747,-0.665 -0.365,-0.342 -0.713,-0.701 -0.347,-0.36 -0.676,-0.737 -0.33,-0.376 -0.64,-0.768 -0.31,-0.393 -0.6,-0.8 -0.291,-0.407 -0.56,-0.828 -0.27,-0.421 -0.519,-0.855 -0.248,-0.435 -0.475,-0.88 -0.226,-0.446 -0.431,-0.903 -0.204,-0.456 -0.385,-0.922 -0.182,-0.466 -0.34,-0.941 -0.157,-0.475 -0.292,-0.956 -0.134,-0.482 -0.244,-0.97 -0.108,-0.491 -0.192,-0.987 -0.083,-0.496 -0.141,-0.996 -0.058,-0.5 -0.091,-1.002 -0.032,-0.502 -0.039,-1.004 -0.008,-0.503 0.011,-1.006 0.018,-0.503 0.062,-1.004 0.043,-0.501 0.112,-0.999 0.069,-0.498 0.164,-0.993 0.094,-0.494 0.213,-0.982 0.119,-0.489 0.262,-0.971 0.144,-0.482 0.312,-0.956 0.168,-0.475 0.36,-0.94 0.191,-0.465 0.406,-0.919 0.215,-0.455 0.453,-0.898 0.238,-0.444 0.498,-0.874 0.26,-0.431 0.541,-0.848 c 3.32,-4.969 8.195,-7.57 13.969,-8.587 z"
         id="path163"
         style="stroke-width:20;stroke-dasharray:none;paint-order:stroke fill markers" />
    </g>
    <g
       id="g179"
       inkscape:label="left inner whiskers"
       style="stroke-width:20;stroke-dasharray:none;paint-order:stroke fill markers"
       transform="translate(-123.58029,-87.23568)">
      <path
         fill="#f6f6ef"
         d="m 341.937,372.189 c 5.096,-0.569 23.52,-4.443 27.166,-1.899 1.228,0.857 1.172,1.257 1.39,2.64 -0.48,1.263 -0.678,1.732 -1.944,2.311 -5.323,2.435 -14.593,1.449 -20.619,2.611 l -3.323,0.203 c -1.127,0.016 -2.599,0.165 -3.686,-0.092 -1.019,-0.241 -1.535,-0.8 -2.139,-1.602 -0.602,-0.8 -0.353,-1.003 -0.234,-1.926 1.028,-1.238 1.955,-1.644 3.389,-2.246 z"
         id="path158"
         style="stroke-width:20;stroke-dasharray:none;paint-order:stroke fill markers" />
      <path
         fill="#f6f6ef"
         d="m 347.604,353.796 c 4.959,0.935 16.157,-0.375 19.353,3.538 0.88,1.076 1.031,1.765 0.996,3.115 -0.823,0.829 -1.147,1.101 -2.33,1.38 -3.298,0.778 -29.544,-1.897 -32.095,-3.733 -0.882,-0.635 -0.922,-0.832 -1.109,-1.834 0.127,-0.147 0.239,-0.309 0.382,-0.442 3.148,-2.932 9.044,-2.402 12.963,-2.301 z"
         id="path159"
         style="stroke-width:20;stroke-dasharray:none;paint-order:stroke fill markers" />
      <path
         fill="#f6f6ef"
         d="m 328.583,330.837 c 1.313,0.215 2.567,0.626 3.839,1.014 6.594,2.01 43.543,12.338 45.787,16.56 -0.153,1.733 -0.796,2.299 -1.798,3.692 -4.304,-0.27 -44.619,-12.903 -48.312,-15.301 -1.103,-0.716 -1.137,-1.106 -1.477,-2.294 0.279,-1.56 1.027,-2.452 1.961,-3.671 z"
         id="path160"
         style="stroke-width:20;stroke-dasharray:none;paint-order:stroke fill markers" />
    </g>
    <g
       id="g180"
       inkscape:label="snout"
       style="display:inline;stroke-width:20;stroke-dasharray:none;paint-order:stroke fill markers"
       transform="translate(-123.58029,-87.23568)">
      <path
         fill="#f6f6ef"
         d="m 471.755,330.892 c 27.362,-8.57 54.273,-7.26 81.511,0.762 30.425,10.643 60.248,30.306 74.391,60.386 q 0.504,1.058 0.951,2.142 c 7.582,17.59 10.425,36.146 3.147,54.364 -9.158,22.925 -31.165,38.539 -53.233,47.806 l -0.798,0.333 -8.291,2.834 q -4.051,1.477 -8.202,2.64 c -42.468,12.224 -91.685,6.857 -130.303,-14.64 -15.304,-8.52 -35.852,-23.928 -40.791,-41.775 -5.145,-18.59 0.848,-42.937 10.199,-59.289 15.268,-26.62 42.137,-46.694 71.419,-55.563 z"
         id="path164"
         style="stroke-width:20;stroke-dasharray:none;paint-order:stroke fill markers" />
      <path
         fill="#f23387"
         d="m 475.1,383.271 c 0.292,0.026 0.587,0.04 0.878,0.079 3.444,0.466 7.914,4.7 11.144,6.355 17.467,8.951 38.699,7.233 54.99,-3.482 1.962,-1.29 3.328,-3.016 5.825,-2.589 -5.583,9.397 -16.525,16.086 -26.949,18.738 -1.85,0.471 -3.756,0.772 -5.641,1.065 0,0 -0.33429,0.12972 -0.50144,0.19458 -4.24714,1.64807 -14.55156,-1.60482 -19.03918,-3.87664 C 485.94266,394.76151 480.961,392.621 475.1,383.271 Z"
         id="path165"
         sodipodi:nodetypes="cccccccssc"
         style="stroke-width:20;stroke-dasharray:none;paint-order:stroke fill markers" />
      <path
         d="m 507.861,403.507 7.156,-0.004 c 0.043,8.612 -0.722,18.097 0.367,26.606 q 0.055,0.584 0.138,1.164 0.083,0.58 0.194,1.156 0.111,0.575 0.249,1.145 0.138,0.57 0.304,1.132 0.165,0.563 0.357,1.116 0.192,0.554 0.411,1.098 0.218,0.544 0.463,1.077 0.244,0.533 0.513,1.054 0.27,0.52 0.564,1.027 0.294,0.507 0.612,1 0.318,0.492 0.66,0.969 0.341,0.476 0.705,0.936 0.364,0.46 0.749,0.901 0.385,0.442 0.791,0.865 0.407,0.422 0.832,0.825 0.426,0.403 0.871,0.785 c 4.124,3.542 10.219,5.899 15.67,5.361 4.996,-0.493 9.21,-3.656 12.247,-7.502 2.637,-3.34 4.483,-8.98 8.548,-10.55 1.264,0.128 1.747,0.088 2.549,1.228 0.997,1.417 0.715,3.048 0.538,4.658 -2.187,1.564 -3.991,6.734 -5.833,9.068 -1.863,2.362 -4.551,4.46 -7.072,6.085 -5.705,3.68 -12.322,5.014 -18.969,3.473 -9.265,-2.149 -14.711,-8.097 -19.54,-15.831 -0.88,1.905 -1.85,3.695 -3.054,5.417 -4.221,6.038 -10.74,10.522 -18.069,11.725 -6.866,1.126 -14.152,-0.793 -19.749,-4.868 -6.276,-4.57 -9.975,-10.976 -11.195,-18.599 0.093,-0.129 0.178,-0.264 0.279,-0.387 1.007,-1.221 1.971,-1.831 3.549,-1.916 4.014,1.598 6.039,8.859 8.856,12.191 3.166,3.746 8.596,6.171 13.463,6.343 5.439,0.193 10.423,-2.254 14.225,-6.033 5.839,-5.804 7.593,-12.497 7.641,-20.466 0.129,-7.419 -0.115,-14.834 -0.02,-22.249 z"
         id="path166"
         style="stroke-width:20;stroke-dasharray:none;paint-order:stroke fill markers" />
      <path
         fill="#3FAAD3"
         d="m 472.066,367.286 c 4.792,-8.316 13.094,-12.502 22.105,-14.938 14.902,-4.027 33.737,-2.572 47.262,5.207 4.137,2.38 8.106,5.791 9.449,10.545 1.153,4.086 0.04,10.81 -2.156,14.455 -0.203,0.338 -0.501,0.836 -0.789,1.079 -2.497,-0.427 -3.863,1.299 -5.825,2.589 -16.291,10.715 -37.523,12.433 -54.99,3.482 -3.23,-1.655 -7.7,-5.889 -11.144,-6.355 -0.291,-0.039 -0.586,-0.053 -0.878,-0.079 -3,-4.683 -3.506,-10.556 -3.034,-15.985 z"
         id="path167"
         style="fill:#f23387;fill-opacity:1;stroke-width:20;stroke-dasharray:none;paint-order:stroke fill markers" />
      <path
         fill="#f89bad"
         d="m 505.772,354.705 c 9.167,-0.509 20.934,0.705 28.887,5.708 2.226,1.4 4.436,3.431 4.936,6.136 0.291,1.581 -0.129,3.121 -1.154,4.368 -3.475,4.229 -12.175,5.455 -17.316,6.059 -9.314,0.787 -21.545,0.703 -29.858,-4.154 -2.321,-1.356 -5.49,-3.915 -5.954,-6.767 -0.256,-1.575 0.06,-2.882 1.057,-4.141 4.121,-5.211 13.226,-6.548 19.402,-7.209 z"
         id="path168"
         style="stroke-width:20;stroke-dasharray:none;paint-order:stroke fill markers" />
      <path
         fill="#ecd8db"
         d="m 504.069,359.17 c 5.243,-0.307 10.749,-0.301 15.706,1.68 1.467,0.587 2.787,1.189 3.413,2.721 l -0.454,0.943 c -2.989,2.229 -6.471,2.476 -10.052,2.905 -4.722,0.1 -12.572,1.816 -16.882,0.18 -1.296,-0.491 -1.669,-1.016 -2.296,-2.202 0.081,-0.981 0.23,-1.585 0.85,-2.347 2.448,-3.012 6.124,-3.422 9.715,-3.88 z"
         id="path169"
         style="stroke-width:20;stroke-dasharray:none;paint-order:stroke fill markers" />
    </g>
    <g
       id="g1"
       inkscape:label="basket crossbar"
       transform="translate(-123.58029,-87.23568)">
      <path
         fill="#bc0b45"
         d="m 654.123,611.589 39.625,-0.042 129.016,0.222 c 11.20467,0.0393 22.40933,0.0213 33.614,-0.054 6.799,-0.039 14.163,-0.611 20.895,0.421 4.347,0.666 8.304,3.287 11.114,6.613 0.714,0.845 1.366,1.738 2.013,2.634 2.149,3.671 2.487,7.607 1.39,11.709 -1.14,4.263 -3.488,8.049 -7.45,10.169 -2.073,1.109 -4.43,1.522 -6.747,1.744 -6.635,0.633 -13.551,0.222 -20.22,0.212 l -35.679,-0.008 -118.793,-0.029 -352.364,0.101 -140.925,0.211 c -10.016,0.023 -60.584,1.075 -64.994,-0.507 -4.124,-1.479 -8.013,-5.51 -9.693,-9.497 -1.59,-3.772 -1.868,-8.053 -0.277,-11.863 1.015,-2.494 2.318,-4.674 4.231,-6.594 3.1,-3.111 6.763,-4.882 11.113,-5.388 7.345,-0.854 15.493,-0.189 22.926,-0.166 l 45.522,0.076 c 154.28,-0.188 278.74956,-1.23879 435.683,0.036 z"
         id="path1"
         style="display:inline;fill:#39823b;fill-opacity:1;stroke:#2f3839;stroke-width:20;stroke-dasharray:none;stroke-opacity:1;paint-order:stroke fill markers"
         sodipodi:nodetypes="cccccscsscccccccccccccc" />
      <g
         id="g74"
         inkscape:label="two-tone"
         clip-path="url(#clipPath81)"
         style="display:inline;stroke:none">
        <rect
           style="display:inline;opacity:1;fill:#4cae4f;fill-opacity:1;fill-rule:evenodd;stroke:none;stroke-width:2.62952;stroke-linecap:round;stroke-linejoin:round"
           id="rect73"
           width="789.96863"
           height="20.707714"
           x="126.593"
           y="600.81134"
           rx="0"
           ry="0"
           inkscape:label="rect73" />
      </g>
    </g>
    <g
       id="g174"
       inkscape:label="left paw"
       style="display:inline;stroke-width:20;stroke-dasharray:none;paint-order:stroke fill markers"
       transform="translate(-123.58029,-87.23568)">
      <ellipse
         style="display:inline;opacity:1;fill:#2f3839;fill-opacity:1;fill-rule:evenodd;stroke:none;stroke-width:16.4566;stroke-linecap:round;stroke-linejoin:round;stroke-dasharray:none;stroke-opacity:1;paint-order:stroke fill markers"
         id="ellipse22"
         cx="426.81183"
         cy="602.93597"
         rx="39.305157"
         ry="35.60915"
         inkscape:label="stroke" />
      <path
         id="path21"
         style="display:inline;fill:#f7e9d3;fill-opacity:1;stroke:none;stroke-width:20;stroke-dasharray:none;stroke-opacity:1;paint-order:stroke fill markers"
         d="m 426.28516,577.39258 c -2.63401,0.0488 -5.26157,0.41586 -7.79688,1.09961 -8.20599,2.214 -14.25316,7.21579 -18.41016,14.55078 -2.92999,5.97599 -3.77926,12.49135 -1.69726,18.90234 2.103,6.474 6.25619,9.98396 12.11719,12.87696 -0.048,-4.776 -1.33992,-22.56968 1.45507,-25.63868 0.985,-1.08 2.24402,-1.54017 3.66602,-1.45117 1.151,0.608 1.65836,1.27028 2.06836,2.48828 1.997,5.944 -0.69934,21.77074 0.97266,25.55274 0.242,0.548 1.08047,1.12281 1.60546,1.38281 2.685,1.325 8.26384,1.90626 11.04883,0.57227 0.662,-0.317 0.71322,-0.40713 1.19922,-0.82813 1.556,-7.93799 -2.28173,-23.17172 2.57227,-29.38672 1.181,-0.519 1.46676,-0.67687 2.75976,-0.17187 0.16067,0.064 0.31675,0.13741 0.46875,0.21875 0.15267,0.0813 0.3007,0.17024 0.44336,0.26757 0.14267,0.0973 0.27883,0.20179 0.41016,0.31446 0.13067,0.112 0.25505,0.23271 0.37305,0.35937 0.118,0.126 0.22869,0.25653 0.33203,0.39453 0.104,0.13867 0.19977,0.28298 0.28711,0.43164 0.0873,0.14934 0.16566,0.30166 0.23632,0.45899 0.0713,0.15733 0.13288,0.31971 0.18555,0.48437 1.059,3.289 0.33767,21.45001 0.38867,26 6.322,-2.89799 10.95315,-6.4975 13.36914,-13.3125 1.356,-3.82199 1.76682,-8.37544 1.38282,-12.39843 -0.138,-0.87334 -0.31592,-1.73966 -0.53125,-2.59766 -0.10934,-0.42267 -0.22938,-0.84181 -0.35938,-1.25781 -0.12933,-0.41667 -0.26925,-0.83024 -0.41992,-1.24024 -0.15,-0.40933 -0.3098,-0.81479 -0.48047,-1.21679 -0.17,-0.40134 -0.34906,-0.79808 -0.53906,-1.19141 -0.18934,-0.39267 -0.38833,-0.7814 -0.59766,-1.16406 -0.20866,-0.38333 -0.42825,-0.76081 -0.65625,-1.13281 -0.22733,-0.37267 -0.46365,-0.73895 -0.70898,-1.09961 -0.246,-0.36067 -0.50034,-0.7145 -0.76367,-1.0625 -0.26267,-0.348 -0.53446,-0.69073 -0.81446,-1.02539 -0.28,-0.33467 -0.56728,-0.66047 -0.86328,-0.98047 -0.296,-0.32067 -0.60011,-0.63412 -0.91211,-0.93946 -0.31133,-0.306 -0.63103,-0.60324 -0.95703,-0.89257 -0.326,-0.29 -0.65933,-0.57237 -1,-0.84571 -0.34,-0.27333 -0.6864,-0.53892 -1.03906,-0.79492 -0.35333,-0.25667 -0.71084,-0.50352 -1.07617,-0.74219 -0.36534,-0.23866 -0.73662,-0.4675 -1.11329,-0.6875 -4.97887,-2.97274 -10.81064,-4.40413 -16.60546,-4.29687 z m 4.24609,14.49804 c 1.00492,0.38188 2.00705,0.79234 3.01367,1.22071 -1.00662,-0.42837 -2.00875,-0.83883 -3.01367,-1.22071 z"
         inkscape:label="path21" />
      <path
         fill="#f6f6ef"
         d="m 400.079,593.042 c 4.157,-7.335 10.204,-12.336 18.41,-14.55 8.113,-2.188 17.159,-1.127 24.401,3.197 q 0.565,0.33 1.113,0.688 0.548,0.358 1.078,0.743 0.529,0.384 1.039,0.794 0.511,0.41 1,0.845 0.489,0.434 0.956,0.893 0.468,0.458 0.912,0.939 0.444,0.48 0.864,0.982 0.42,0.502 0.814,1.024 0.395,0.522 0.764,1.063 0.368,0.541 0.709,1.1 0.342,0.558 0.655,1.133 0.314,0.574 0.598,1.163 0.285,0.59 0.54,1.192 0.256,0.603 0.481,1.217 0.226,0.615 0.42,1.24 0.195,0.624 0.359,1.258 0.323,1.287 0.53,2.597 c -0.121,1.13 -0.092,1.758 -0.654,2.751 -1.848,-0.291 -3.382,-1.522 -4.907,-2.554 -3.337,-2.259 -6.82,-3.359 -10.478,-4.949 -8.384,-3.645 -15.701,-7.555 -25.191,-6.121 -4.393,0.664 -9.039,3.195 -13.407,3.341 -0.335,0.012 -0.67,0.01 -1.006,0.014 z"
         id="path170"
         style="display:inline;stroke-width:20;stroke-dasharray:none;paint-order:stroke fill markers" />
    </g>
    <g
       id="g175"
       inkscape:label="right paw"
       style="display:inline;stroke-width:20;stroke-dasharray:none;paint-order:stroke fill markers"
       transform="translate(-123.58029,-87.23568)">
      <ellipse
         style="display:inline;opacity:1;fill:#2f3839;fill-opacity:1;fill-rule:evenodd;stroke:none;stroke-width:16.4566;stroke-linecap:round;stroke-linejoin:round;stroke-dasharray:none;stroke-opacity:1;paint-order:stroke fill markers"
         id="path20"
         cx="595.2948"
         cy="602.69427"
         rx="39.305157"
         ry="35.60915"
         inkscape:label="stroke" />
      <path
         fill="#f7e9d3"
         d="m 607.31,595.851 c 5.094,2.029 11.009,5.423 16.32,6.521 -0.042,4.14 -0.538,8.386 -2.128,12.244 -2.391,5.801 -6.812,8.85 -12.434,11.07 -0.127,-6.111 1.334,-20.062 -0.646,-25.175 -0.677,-1.747 -1.558,-2.409 -3.229,-3.135 0.756,-0.141 1.519,-1.025 2.117,-1.525 z"
         id="path141"
         style="stroke-width:20;stroke-dasharray:none;paint-order:stroke fill markers" />
      <path
         fill="#f7e9d3"
         d="m 565.825,604.211 c 1.527,-1.559 3.143,-2.424 5.084,-3.373 12.437,-6.083 22.731,-9.654 36.401,-4.987 -0.598,0.5 -1.361,1.384 -2.117,1.525 -1.692,0.88 -2.691,1.479 -3.307,3.422 -1.764,5.569 2.096,24.289 -2.432,26.896 -2.185,1.259 -6.395,1.111 -8.691,0.266 -1.551,-0.572 -2.715,-1.676 -3.327,-3.222 -2.298,-5.808 2.866,-23.04 -2.692,-25.948 -1.203,-0.63 -2.178,-0.398 -3.388,-0.034 -1.876,1.748 -2.015,2.988 -2.113,5.437 -0.28,6.994 0.241,13.973 -0.233,21.006 -5.59,-2.913 -9.607,-6.265 -11.671,-12.474 -0.916,-2.752 -1.28,-5.635 -1.514,-8.514 z"
         id="path142"
         style="stroke-width:20;stroke-dasharray:none;paint-order:stroke fill markers" />
      <path
         fill="#f6f6ef"
         d="m 565.825,604.211 c -0.004,-5.929 1.584,-11.6 5.085,-16.43 4.631,-6.389 11.986,-10.006 19.679,-11.052 8.015,-1.089 16.796,0.725 23.213,5.805 6.381,5.051 9.019,12.017 9.828,19.838 -5.311,-1.098 -11.226,-4.492 -16.32,-6.521 -13.67,-4.667 -23.964,-1.096 -36.401,4.987 -1.941,0.949 -3.557,1.814 -5.084,3.373 z"
         id="path143"
         style="stroke-width:20;stroke-dasharray:none;paint-order:stroke fill markers" />
    </g>
    <g
       id="g24"
       inkscape:label="left outer whiskers"
       transform="translate(-123.58029,-87.23568)">
      <path
         id="path23"
         style="display:inline;fill:#2f3839;fill-opacity:1;fill-rule:evenodd;stroke-width:20;stroke-linecap:round;stroke-linejoin:round;paint-order:stroke fill markers"
         d="m 347.92969,379.85156 -3.32227,0.20313 c 0,0 -36.39011,14.90955 -40.98633,17.26953 -4.59623,2.35999 -48.59618,28.0554 -52.2539,35.72266 l 0.34961,0.65429 c 9.02741,-0.87115 39.8452,-23.46259 52.48242,-29.24219 l 26.92573,-12.31442 c 5.39697,-2.092 11.00233,-3.88128 16.2832,-6.23828 1.143,-0.511 1.9513,-0.63069 2.5293,-1.80469 -0.362,-1.711 -1.04481,-2.804 -2.00781,-4.25 z"
         sodipodi:nodetypes="cczccsccccc" />
      <path
         id="path16"
         style="display:inline;fill:#2f3839;fill-opacity:1;fill-rule:evenodd;stroke-width:20;stroke-linecap:round;stroke-linejoin:round;paint-order:stroke fill markers"
         d="m 333.13477,363.70703 c -10.24402,0.0403 -20.52973,0.39694 -30.67969,1.92774 l -14.78906,2.23046 c -9.77097,1.636 -51.77984,10.27789 -56.92383,17.50586 l 0.33789,0.64453 c 6.18599,1.415 38.66806,-7.50292 46.58203,-9.16992 l 24.75195,-4.28906 c 12.02091,-2.083 27.72857,-3.34019 39.52344,-2.36719 l 1.45312,-6.18164 c -3.42298,-0.22475 -6.84118,-0.31421 -10.25585,-0.30078 z"
         sodipodi:nodetypes="ssccccsccs" />
      <path
         id="path14"
         style="display:inline;fill:#2f3839;fill-opacity:1;fill-rule:evenodd;stroke-width:20;stroke-linecap:round;stroke-linejoin:round;paint-order:stroke fill markers"
         d="m 255.22014,336.70404 c -9.98071,0.0256 -19.0735,0.63976 -24.70898,2.15625 -1.613,0.434 -3.81345,0.91403 -4.68945,2.41602 1.373,0.909 2.6885,0.96733 4.3125,1.11133 10.98497,0.975 22.11767,1.03998 33.14062,1.58398 12.24731,0.69533 28.66397,0.78273 40.89056,1.77813 14.16173,1.15293 28.2371,3.07032 42.06508,6.35181 l 1.83984,0.27735 c 0.263,-0.55699 0.31163,-0.60379 0.47461,-1.30079 0.336,-1.43797 0.32656,-2.84359 -0.39844,-4.14257 -4.58699,-2.993 -35.17679,-8.25336 -42.94726,-8.51953 z"
         sodipodi:nodetypes="cscccsccccsc" />
    </g>
    <g
       id="g39"
       inkscape:label="right outer whiskers"
       style="display:inline;fill:#2f3839;fill-opacity:1"
       transform="translate(-123.58029,-87.23568)">
      <path
         id="path36"
         style="display:inline;opacity:1;fill:#2f3839;fill-opacity:1;fill-rule:evenodd;stroke-width:20;stroke-linecap:round;stroke-linejoin:round;paint-order:stroke fill markers"
         d="m 670.0885,381.87923 c 1.89981,0.95216 25.6175,10.05353 50.56384,21.78487 8.423,3.96102 32.98992,16.41854 32.98992,16.41854 4.75998,2.465 10.33779,5.98655 15.42578,7.43555 1.153,0.329 1.6696,0.17864 2.64258,-0.44336 l 0.041,-1.17383 c -3.47543,-6.1988 -36.50679,-27.08212 -50.45794,-31.09037 -13.95115,-4.00826 -35.39658,-12.30232 -51.20518,-12.9314 z"
         sodipodi:nodetypes="cscccczc" />
      <path
         id="path33"
         style="display:inline;opacity:1;fill:#2f3839;fill-opacity:1;fill-rule:evenodd;stroke-width:20;stroke-linecap:round;stroke-linejoin:round;paint-order:stroke fill markers"
         d="m 685.93164,362.74219 c -4.62405,0.0133 -8.283,0.40059 -9.85547,1.39453 -0.153,0.096 -0.28087,0.22489 -0.42187,0.33789 l 0.082,0.79101 c 1.93501,1.1804 40.61097,6.82468 46.30273,7.97266 l 48.52961,10.43746 c 7.91097,2.153 16.34332,5.3416 24.4043,6.5586 1.35799,-0.48 1.81528,-0.98235 2.73828,-2.02735 0.239,-1.124 0.45653,-1.61637 -0.35547,-2.60937 -4.84092,-5.91948 -64.10809,-18.62537 -75.76984,-19.66793 z"
         sodipodi:nodetypes="cccccccccsc" />
      <path
         id="path28"
         style="display:inline;opacity:1;fill:#2f3839;fill-opacity:1;fill-rule:evenodd;stroke-width:20;stroke-linecap:round;stroke-linejoin:round;paint-order:stroke fill markers"
         d="m 739.05469,336.31641 c -2.75945,0.0122 -5.40958,0.0434 -7.87891,0.0879 l -12.72656,0.82226 c -15.22576,1.89172 -32.53375,4.12448 -46.33399,11.04492 15.66326,-1.75135 31.55752,-4.1769 47.3086,-4.8789 l 46.2848,0.28112 c 6.33099,0.089 28.03385,1.93862 32.08984,0.64062 0.804,-0.892 0.76799,-0.8039 0.70899,-2.0039 -0.48,-0.577 -0.51146,-0.67069 -1.18946,-1.17969 -4.49492,-3.37386 -23.24792,-4.49051 -40.67773,-4.6875 -2.90497,-0.0328 -14.82613,-0.13908 -17.58558,-0.12678 z"
         sodipodi:nodetypes="sccccccccsss" />
    </g>
  </g>
</svg>
