<?xml version="1.0" encoding="UTF-8" standalone="no"?>
<!-- Generator: Adobe Illustrator 19.1.0, SVG Export Plug-In . SVG Version: 6.00 Build 0)  -->

<svg
   xmlns:dc="http://purl.org/dc/elements/1.1/"
   xmlns:cc="http://creativecommons.org/ns#"
   xmlns:rdf="http://www.w3.org/1999/02/22-rdf-syntax-ns#"
   xmlns:svg="http://www.w3.org/2000/svg"
   xmlns="http://www.w3.org/2000/svg"
   xmlns:sodipodi="http://sodipodi.sourceforge.net/DTD/sodipodi-0.dtd"
   xmlns:inkscape="http://www.inkscape.org/namespaces/inkscape"
   version="1.1"
   id="Capa_1"
   x="0px"
   y="0px"
   viewBox="0 0 487.1 487.1"
   style="enable-background:new 0 0 487.1 487.1;"
   xml:space="preserve"
   sodipodi:docname="shopping-basket.svg"
   inkscape:version="0.92.2 5c3e80d, 2017-08-06"><metadata
     id="metadata47"><rdf:RDF><cc:Work
         rdf:about=""><dc:format>image/svg+xml</dc:format><dc:type
           rdf:resource="http://purl.org/dc/dcmitype/StillImage" /></cc:Work></rdf:RDF></metadata><defs
     id="defs45" /><sodipodi:namedview
     pagecolor="#ffffff"
     bordercolor="#666666"
     borderopacity="1"
     objecttolerance="10"
     gridtolerance="10"
     guidetolerance="10"
     inkscape:pageopacity="0"
     inkscape:pageshadow="2"
     inkscape:window-width="1393"
     inkscape:window-height="855"
     id="namedview43"
     showgrid="false"
     inkscape:zoom="0.4845001"
     inkscape:cx="214.74196"
     inkscape:cy="243.55"
     inkscape:window-x="47"
     inkscape:window-y="1"
     inkscape:window-maximized="1"
     inkscape:current-layer="Capa_1" /><g
     id="g860"
     style="fill:#4caf50;fill-opacity:1"><path
       inkscape:connector-curvature="0"
       id="path2"
       d="M 342.3,137.978 H 385 l -63.3,-108.6 c -5.1,-8.8 -16.4,-11.8 -25.2,-6.6 -8.8,5.1 -11.8,16.4 -6.6,25.2 z"
       style="fill:#4caf50;fill-opacity:1" /><path
       inkscape:connector-curvature="0"
       id="path4"
       d="m 197.4,47.978 c 5.1,-8.8 2.2,-20.1 -6.6,-25.2 -8.8,-5.1 -20.1,-2.2 -25.2,6.6 l -63.3,108.7 H 145 Z"
       style="fill:#4caf50;fill-opacity:1" /><path
       inkscape:connector-curvature="0"
       id="path6"
       d="M 455.7,171.278 H 31.3 c -17.3,0 -31.3,14 -31.3,31.3 v 34.7 c 0,17.3 14,31.3 31.3,31.3 h 9.8 l 30.2,163.7 c 3.8,19.3 21.4,34.6 39.7,34.6 h 12 78.8 c 8,0 18.4,0 29,0 v 0 h 9.6 9.6 v 0 c 10.6,0 21,0 29,0 h 78.8 12 c 18.3,0 35.9,-15.3 39.7,-34.6 l 30.4,-163.8 h 15.9 c 17.3,0 31.3,-14 31.3,-31.3 v -34.7 c -0.1,-17.2 -14.1,-31.2 -31.4,-31.2 z m -282.9,163.6 v 70.6 c 0,10.1 -8.2,17.7 -17.7,17.7 -10.1,0 -17.7,-8.2 -17.7,-17.7 v -29.6 -69.4 c 0,-10.1 8.2,-17.7 17.7,-17.7 10.1,0 17.7,8.2 17.7,17.7 z m 56.8,0 v 70.6 c 0,10.1 -8.2,17.7 -17.7,17.7 -10.1,0 -17.7,-8.2 -17.7,-17.7 v -29.6 -69.4 c 0,-10.1 8.2,-17.7 17.7,-17.7 9.5,0 17.7,8.2 17.7,17.7 z m 57.1,41 v 29.6 c 0,9.5 -7.6,17.7 -17.7,17.7 -9.5,0 -17.7,-7.6 -17.7,-17.7 v -70.6 -28.4 c 0,-9.5 8.2,-17.7 17.7,-17.7 9.5,0 17.7,7.6 17.7,17.7 z m 56.8,0 v 29.6 c 0,9.5 -7.6,17.7 -17.7,17.7 -9.5,0 -17.7,-7.6 -17.7,-17.7 v -70.6 -28.4 c 0,-9.5 7.6,-17.7 17.7,-17.7 9.5,0 17.7,7.6 17.7,17.7 z"
       style="fill:#4caf50;fill-opacity:1" /></g></svg>